<svg width="1440" height="1004" viewBox="0 0 1440 1004" fill="none" xmlns="http://www.w3.org/2000/svg">
<mask id="mask0_1_14" style="mask-type:alpha" maskUnits="userSpaceOnUse" x="0" y="0" width="1440" height="1004">
<rect width="1440" height="1004" fill="#D9D9D9"/>
</mask>
<g mask="url(#mask0_1_14)">
<rect width="1440" height="1070" fill="#4880FF"/>
<path fill-rule="evenodd" clip-rule="evenodd" d="M-1.5 1451.44C245.647 1451.44 446 1251.09 446 1003.94C446 871.82 127.153 981.36 36.0954 899.444C-43.1767 828.131 113.523 556.444 -1.5 556.444C-248.647 556.444 -449 756.797 -449 1003.94C-449 1251.09 -248.647 1451.44 -1.5 1451.44Z" fill="#568AFF"/>
<path opacity="0.541829" fill-rule="evenodd" clip-rule="evenodd" d="M590.471 -137.471C540.505 145.898 729.716 416.119 1013.08 466.085C1164.57 492.796 1103.44 105.074 1215.77 17.232C1313.56 -59.2407 1593.39 175.351 1616.64 43.4707C1666.61 -239.898 1477.4 -510.119 1194.03 -560.085C910.657 -610.05 640.436 -420.84 590.471 -137.471Z" fill="#568AFF"/>
<path opacity="0.6" fill-rule="evenodd" clip-rule="evenodd" d="M-54.4875 -162.502C-286.73 -77.9721 -406.475 178.822 -321.946 411.065C-276.757 535.221 -14.6037 323.235 98.9795 369.067C197.861 408.967 143.534 717.864 251.62 678.523C483.863 593.994 603.608 337.2 519.079 104.957C434.55 -127.286 177.755 -247.031 -54.4875 -162.502Z" fill="#568AFF"/>
<path fill-rule="evenodd" clip-rule="evenodd" d="M1732.38 1103.4C1787.52 790.665 1578.7 492.436 1265.96 437.292C1098.77 407.812 1166.24 835.72 1042.27 932.667C934.34 1017.07 625.512 758.159 599.848 903.709C544.703 1216.45 753.525 1514.68 1066.26 1569.82C1379 1624.97 1677.23 1416.14 1732.38 1103.4Z" fill="#568AFF"/>
</g>
</svg>
